# xmcd
#
# Track frame offsets: 
#        150
#        8825
#        20300
#        33525
#        46350
#        61525
#        72400
#        85012
#        99487
#        117112
#        129937
#        143350
#        156850
#        173175
#        187430
#        199912
#        212800
#        226100
#        233337
#        247625
#        259087
#        272975
#        287887
#        302450
#
# Disc length: 4226 seconds
#
# Revision: 2
# Processed by: cddbd v1.5.2PL0 Copyright (c) Steve Scherf et al.
# Submitted via: ExactAudioCopy v0.99pb5
#
DISCID=3d108018
DTITLE=Various Artist - The Best Of George Gershwin
DYEAR=1900
DGENRE=Easy Listening
TTITLE0=Swanee - Al Jolson
TTITLE1=Love Walked In - Louis Armstrong
TTITLE2=Embraceable You - Judy Garland
TTITLE3=Liza - Chick Webb and Orchestra
TTITLE4=How Long Has This Been Going On - Peggy Lee
TTITLE5=Nice Work If You Can Get It - Tommy Dorsey and Orchestra
TTITLE6=Someone To Watch Over Me - Fats Waller and Lee Wiley
TTITLE7=I Got Rhythm -  Fats Waller and Lee Wiley
TTITLE8=The Man I Love - Helen Forrest with Benny Goodman Orchestra
TTITLE9=They All Laughed - Fred Astaire
TTITLE10=Summertime - Bille Holliday
TTITLE11=I Was Doing Allright - Ella Fitzgerald
TTITLE12=They Can't Take That Away From Me - Carmen McCrae
TTITLE13=Oh, Lady Be Good - Artie Shaw and Orchestra
TTITLE14=Fascinating Rhythm - Buddy Lee and The Giltedged Four
TTITLE15=Somebody Loves Me - Benny Carter and Orchestra
TTITLE16=A Foggy Day - Cyril Grantham with Geraldo and Orchestra
TTITLE17='Tis Wonderful - Doris Day
TTITLE18=But Not For Me - Judy Graland
TTITLE19=Shall We Dance - Fred Astaire
TTITLE20=Rhapsody In Blue - Glenn Miller
TTITLE21=I've Got A Crush On You - Lee Wiley
TTITLE22=The Man I Love - Artie Shaw
TTITLE23=Kickin' The Clouds Away - George Gershwin
EXTD=
EXTT0=
EXTT1=
EXTT2=
EXTT3=
EXTT4=
EXTT5=
EXTT6=
EXTT7=
EXTT8=
EXTT9=
EXTT10=
EXTT11=
EXTT12=
EXTT13=
EXTT14=
EXTT15=
EXTT16=
EXTT17=
EXTT18=
EXTT19=
EXTT20=
EXTT21=
EXTT22=
EXTT23=
PLAYORDER=
